<?xml version="1.0"?>
<svg xmlns="http://www.w3.org/2000/svg" xmlns:xlink="http://www.w3.org/1999/xlink" height="671.7100486755371" version="1.1" width="1445.001937866211" id="temp" viewBox="0 0 1445.001937866211 671.7100486755371"><defs/><g id="Model" class="Model v1-1"><g class="Floor"><g id="Floor-1" class="Floorplan Floor-1"><g id="331c0f98-4b0f-489c-b6ae-abeaa581e6db" fill="#ffffff" stroke="#000000" style="fill-opacity: 1; stroke-opacity: 1; stroke-width: 0.2;" class="Space Outdoor Balcony"><polygon points="239.02,455.04 239.02,243.50 328.83,243.50 328.83,455.04 239.02,455.04 239.02,455.04 "/><g transform="matrix(1,0,0,1,239.0227,243.5035)" class="Dimension"><g transform="matrix(1,0,0,1,0,0)" style="display: none;" class="Visual"><g id="mark1" fill="#000000" stroke="none" transform="matrix(1,0,0,1,44.9018,0)" style="fill-opacity: 1; pointer-events: visible;" class="DimensionMark"><polygon points="-5,5,0,0,5,5"/></g><g id="mark2" fill="#000000" stroke="none" transform="matrix(1,0,0,1,89.8036,105.7683)" style="fill-opacity: 1; pointer-events: visible;" class="DimensionMark"><polygon points="-5,-5,0,0,-5,5"/></g><g id="mark3" fill="#000000" stroke="none" transform="matrix(1,0,0,1,44.9018,211.5366)" style="fill-opacity: 1; pointer-events: visible;" class="DimensionMark"><polygon points="-5,-5,0,0,5,-5"/></g><g id="mark4" fill="#000000" stroke="none" transform="matrix(1,0,0,1,0,105.7683)" style="fill-opacity: 1; pointer-events: visible;" class="DimensionMark"><polygon points="5,5,0,0,5,-5"/></g></g><g transform="matrix(0,-1,1,0,57.9238,182.1089)" class="SpaceDimensionsLabel" style="display: block;"><g id="NameLabel" style="display: block;" class="TextLabel NameLabel"><text x="0" y="0em" fill="#000000" stroke="none" style="font-family: Verdana; font-size: 33px; fill-opacity: 1; cursor: default;">PARVEKE</text></g><g id="DimensionMeasureLabel" transform="matrix(1,0,0,1,-32.0313,40.125)" style="display: none;" class="TextLabel DimensionMeasureLabel"><text x="0" y="0em" fill="#000000" stroke="none" style="font-family: Verdana; font-size: 33px; fill-opacity: 1; cursor: default;">2'11" x 6'11"</text><text x="0" y="0"/></g></g></g></g><g id="e5bf1317-be73-4c44-9263-f7b1cd83526d" fill="#ffffff" stroke="#ffffff" style="fill-opacity: 1; stroke-opacity: 1; stroke-width: 0.2;" class="Space Undefined"><polygon points="801.91,505.52 370.83,505.52 370.83,93.41 801.91,93.41 "/><g transform="matrix(1,0,0,1,370.8262,93.4112)" class="Dimension"><g transform="matrix(1,0,0,1,0,0)" style="display: none;" class="Visual"><g id="mark1" fill="#000000" stroke="none" transform="matrix(1,0,0,1,215.5403,0)" style="fill-opacity: 1; pointer-events: visible;" class="DimensionMark"><polygon points="-5,5,0,0,5,5"/></g><g id="mark2" fill="#000000" stroke="none" transform="matrix(1,0,0,1,431.0806,206.054)" style="fill-opacity: 1; pointer-events: visible;" class="DimensionMark"><polygon points="-5,-5,0,0,-5,5"/></g><g id="mark3" fill="#000000" stroke="none" transform="matrix(1,0,0,1,215.5403,412.108)" style="fill-opacity: 1; pointer-events: visible;" class="DimensionMark"><polygon points="-5,-5,0,0,5,-5"/></g><g id="mark4" fill="#000000" stroke="none" transform="matrix(1,0,0,1,0,206.054)" style="fill-opacity: 1; pointer-events: visible;" class="DimensionMark"><polygon points="5,5,0,0,5,-5"/></g></g><g transform="matrix(1,0,0,1,215.5403,206.054)" class="SpaceDimensionsLabel"><g id="NameLabel" style="display: block;" class="TextLabel NameLabel"><text x="0" y="0em" fill="#000000" stroke="none" style="font-family: Verdana; font-size: 33px; fill-opacity: 1; cursor: default;">UNDEFINED</text></g><g id="DimensionMeasureLabel" transform="matrix(1,0,0,1,-8.8281,39.8125)" style="display: none;" class="TextLabel DimensionMeasureLabel"><text x="0" y="0em" fill="#000000" stroke="none" style="font-family: Verdana; font-size: 33px; fill-opacity: 1; cursor: default;">14'2" x 13'6"</text><text x="0" y="0"/></g></g></g></g><g id="4674de21-b9dd-4bdd-aaf1-64cfd4dc267b" fill="#ffffff" stroke="#ffffff" style="fill-opacity: 1; stroke-opacity: 1; stroke-width: 0.2;" class="Space Undefined"><polygon points="1270.16,395.79 871.60,395.79 871.60,289.46 810.91,289.46 810.91,159.97 865.92,159.97 865.92,93.41 856.31,93.41 856.31,148.97 810.91,148.97 810.91,107.61 823.09,107.61 823.09,93.41 1270.16,93.41 "/><g transform="matrix(1,0,0,1,810.9068,93.4112)" class="Dimension"><g transform="matrix(1,0,0,1,0,0)" style="display: none;" class="Visual"><g id="mark1" fill="#000000" stroke="none" transform="matrix(1,0,0,1,229.6249,0)" style="fill-opacity: 1; pointer-events: visible;" class="DimensionMark"><polygon points="-5,5,0,0,5,5"/></g><g id="mark2" fill="#000000" stroke="none" transform="matrix(1,0,0,1,459.2499,151.1906)" style="fill-opacity: 1; pointer-events: visible;" class="DimensionMark"><polygon points="-5,-5,0,0,-5,5"/></g><g id="mark3" fill="#000000" stroke="none" transform="matrix(1,0,0,1,229.6249,302.3813)" style="fill-opacity: 1; pointer-events: visible;" class="DimensionMark"><polygon points="-5,-5,0,0,5,-5"/></g><g id="mark4" fill="#000000" stroke="none" transform="matrix(1,0,0,1,0,151.1906)" style="fill-opacity: 1; pointer-events: visible;" class="DimensionMark"><polygon points="5,5,0,0,5,-5"/></g></g><g transform="matrix(1,0,0,1,274.6237,151.7813)" class="SpaceDimensionsLabel"><g id="NameLabel" style="display: block;" class="TextLabel NameLabel"><text x="0" y="0em" fill="#000000" stroke="none" style="font-family: Verdana; font-size: 33px; fill-opacity: 1; cursor: default;">UNDEFINED</text></g><g id="DimensionMeasureLabel" transform="matrix(1,0,0,1,-8.8281,39.8125)" style="display: none;" class="TextLabel DimensionMeasureLabel"><text x="0" y="0em" fill="#000000" stroke="none" style="font-family: Verdana; font-size: 33px; fill-opacity: 1; cursor: default;">15'1" x 9'11"</text><text x="0" y="0"/></g></g></g></g><g id="1b371e7f-ea2a-4b88-86b6-b32aa480e03c" fill="#ffffff" stroke="#ffffff" style="fill-opacity: 1; stroke-opacity: 1; stroke-width: 0.2;" class="Space Undefined"><polygon points="1270.16,572.84 1215.72,572.84 1215.72,630.47 1114.87,630.47 1114.87,558.63 970.60,558.63 970.60,464.60 1031.10,464.60 1031.10,404.79 1270.16,404.79 "/><g transform="matrix(1,0,0,1,970.6014,404.7925)" class="Dimension"><g transform="matrix(1,0,0,1,0,0)" style="display: none;" class="Visual"><g id="mark1" fill="#0000ff" stroke="none" transform="matrix(2,0,0,2,149.7777,0)" style="fill-opacity: 1; pointer-events: visible;" class="DimensionMark"><polygon points="-5,5,0,0,5,5"/></g><g id="mark2" fill="#0000ff" stroke="none" transform="matrix(2,0,0,2,299.5554,112.8367)" style="fill-opacity: 1; pointer-events: visible;" class="DimensionMark"><polygon points="-5,-5,0,0,-5,5"/></g><g id="mark3" fill="#0000ff" stroke="none" transform="matrix(2,0,0,2,149.7777,225.6735)" style="fill-opacity: 1; pointer-events: visible;" class="DimensionMark"><polygon points="-5,-5,0,0,5,-5"/></g><g id="mark4" fill="#0000ff" stroke="none" transform="matrix(2,0,0,2,0,112.8367)" style="fill-opacity: 1; pointer-events: visible;" class="DimensionMark"><polygon points="5,5,0,0,5,-5"/></g></g><g transform="matrix(1,0,0,1,19.1362,121.8467)" class="SpaceDimensionsLabel"><g id="NameLabel" style="display: block;" class="TextLabel NameLabel"><text x="0" y="0em" fill="#000000" stroke="none" style="font-family: Verdana; font-size: 33px; fill-opacity: 1; cursor: default;">UNDEFINED</text></g><g id="DimensionMeasureLabel" transform="matrix(1,0,0,1,1.6562,39.8125)" style="display: none;" class="TextLabel DimensionMeasureLabel"><text x="0" y="0em" fill="#000000" stroke="none" style="font-family: Verdana; font-size: 33px; fill-opacity: 1; cursor: default;">9'10" x 7'5"</text><text x="0" y="0"/></g></g></g></g><g id="0934cda7-798e-4140-807c-29f408132789" fill="#ffffff" stroke="#ffffff" style="fill-opacity: 1; stroke-opacity: 1; stroke-width: 0.2;" class="Space Undefined"><polygon points="961.60,630.47 810.91,630.47 810.91,404.79 961.60,404.79 "/><g transform="matrix(1,0,0,1,810.9068,404.7925)" class="Dimension"><g transform="matrix(1,0,0,1,0,0)" style="display: none;" class="Visual"><g id="mark1" fill="#000000" stroke="none" transform="matrix(1,0,0,1,75.3473,0)" style="fill-opacity: 1; pointer-events: visible;" class="DimensionMark"><polygon points="-5,5,0,0,5,5"/></g><g id="mark2" fill="#000000" stroke="none" transform="matrix(1,0,0,1,150.6945,112.8367)" style="fill-opacity: 1; pointer-events: visible;" class="DimensionMark"><polygon points="-5,-5,0,0,-5,5"/></g><g id="mark3" fill="#000000" stroke="none" transform="matrix(1,0,0,1,75.3473,225.6735)" style="fill-opacity: 1; pointer-events: visible;" class="DimensionMark"><polygon points="-5,-5,0,0,5,-5"/></g><g id="mark4" fill="#000000" stroke="none" transform="matrix(1,0,0,1,0,112.8367)" style="fill-opacity: 1; pointer-events: visible;" class="DimensionMark"><polygon points="5,5,0,0,5,-5"/></g></g><g transform="matrix(1,0,0,1,-42.9915,138.2649)" class="SpaceDimensionsLabel"><g id="NameLabel" style="display: block;" class="TextLabel NameLabel"><text x="0" y="0em" fill="#000000" stroke="none" style="font-family: Verdana; font-size: 33px; fill-opacity: 1; cursor: default;">UNDEFINED</text></g><g id="DimensionMeasureLabel" transform="matrix(1,0,0,1,1.6562,40.0937)" style="display: none;" class="TextLabel DimensionMeasureLabel"><text x="0" y="0em" fill="#000000" stroke="none" style="font-family: Verdana; font-size: 33px; fill-opacity: 1; cursor: default;">4'11" x 7'5"</text><text x="0" y="0"/></g></g></g></g><g id="68bf3c17-e1f2-4e3b-b79a-531d1111edbe" fill="#ffffff" stroke="#ffffff" style="fill-opacity: 1; stroke-opacity: 1; stroke-width: 0.2;" class="Space Bath"><polygon points="801.91,653.71 699.60,653.71 699.60,564.85 747.28,564.85 747.28,513.52 801.91,513.52 "/><g transform="matrix(1,0,0,1,699.5958,513.5192)" class="Dimension"><g transform="matrix(1,0,0,1,0,0)" style="display: none;" class="Visual"><g id="mark1" fill="#000000" stroke="none" transform="matrix(1,0,0,1,51.1555,0)" style="fill-opacity: 1; pointer-events: visible;" class="DimensionMark"><polygon points="-5,5,0,0,5,5"/></g><g id="mark2" fill="#000000" stroke="none" transform="matrix(1,0,0,1,102.311,70.0978)" style="fill-opacity: 1; pointer-events: visible;" class="DimensionMark"><polygon points="-5,-5,0,0,-5,5"/></g><g id="mark3" fill="#000000" stroke="none" transform="matrix(1,0,0,1,51.1555,140.1956)" style="fill-opacity: 1; pointer-events: visible;" class="DimensionMark"><polygon points="-5,-5,0,0,5,-5"/></g><g id="mark4" fill="#000000" stroke="none" transform="matrix(1,0,0,1,0,70.0978)" style="fill-opacity: 1; pointer-events: visible;" class="DimensionMark"><polygon points="5,5,0,0,5,-5"/></g></g><g transform="matrix(0,-1,1,0,87.9511,77.231)" class="SpaceDimensionsLabel" style="display: block;"><g id="NameLabel" style="display: block;" class="TextLabel NameLabel"><text x="0" y="0em" fill="#000000" stroke="none" style="font-family: Verdana; font-size: 33px; fill-opacity: 1; cursor: default;">WC</text></g><g id="DimensionMeasureLabel" transform="matrix(1,0,0,1,-59.4922,40.0937)" style="display: none;" class="TextLabel DimensionMeasureLabel"><text x="0" y="0em" fill="#000000" stroke="none" style="font-family: Verdana; font-size: 33px; fill-opacity: 1; cursor: default;">3'4" x 4'7"</text><text x="0" y="0"/></g></g></g></g><g id="aa6218bf-7403-4ae6-8788-e507f8414e14" fill="#ffffff" stroke="#ffffff" style="fill-opacity: 1; stroke-opacity: 1; stroke-width: 0.2;" class="Space Undefined"><polygon points="1107.87,630.47 1038.38,630.47 1038.38,568.63 1107.87,568.63 "/><g transform="matrix(1,0,0,1,1038.3842,568.6333)" class="Dimension"><g transform="matrix(1,0,0,1,0,0)" style="display: none;" class="Visual"><g id="mark1" fill="#000000" stroke="none" transform="matrix(1,0,0,1,34.7443,0)" style="fill-opacity: 1; pointer-events: visible;" class="DimensionMark"><polygon points="-5,5,0,0,5,5"/></g><g id="mark2" fill="#000000" stroke="none" transform="matrix(1,0,0,1,69.4886,30.9163)" style="fill-opacity: 1; pointer-events: visible;" class="DimensionMark"><polygon points="-5,-5,0,0,-5,5"/></g><g id="mark3" fill="#000000" stroke="none" transform="matrix(1,0,0,1,34.7443,61.8327)" style="fill-opacity: 1; pointer-events: visible;" class="DimensionMark"><polygon points="-5,-5,0,0,5,-5"/></g><g id="mark4" fill="#000000" stroke="none" transform="matrix(1,0,0,1,0,30.9163)" style="fill-opacity: 1; pointer-events: visible;" class="DimensionMark"><polygon points="5,5,0,0,5,-5"/></g></g><g transform="matrix(1,0,0,1,30.9163,30.9164)" class="SpaceDimensionsLabel"><g id="NameLabel" style="display: block;" class="TextLabel NameLabel"><text x="0" y="0em" fill="#000000" stroke="none" style="font-family: Verdana; font-size: 33px; fill-opacity: 1; cursor: default;">UNDEFINED</text></g><g id="DimensionMeasureLabel" transform="matrix(1,0,0,1,12.1485,39.8125)" style="display: none;" class="TextLabel DimensionMeasureLabel"><text x="0" y="0em" fill="#000000" stroke="none" style="font-family: Verdana; font-size: 33px; fill-opacity: 1; cursor: default;">2'3" x 2'0"</text><text x="0" y="0"/></g></g></g></g><g id="047dced2-cb0d-4aa1-aaa8-8cdea38d49e6" fill="#ffffff" stroke="#ffffff" style="fill-opacity: 1; stroke-opacity: 1; stroke-width: 0.2;" class="Space Undefined"><polygon points="1270.16,594.29 1291.38,594.29 1291.38,630.47 1222.72,630.47 1222.72,583.84 1270.16,583.84 "/><g transform="matrix(1,0,0,1,1222.7194,583.8381)" class="Dimension"><g transform="matrix(1,0,0,1,0,0)" style="display: none;" class="Visual"><g id="mark1" fill="#000000" stroke="none" transform="matrix(1,0,0,1,34.3282,0)" style="fill-opacity: 1; pointer-events: visible;" class="DimensionMark"><polygon points="-5,5,0,0,5,5"/></g><g id="mark2" fill="#000000" stroke="none" transform="matrix(1,0,0,1,68.6564,23.3139)" style="fill-opacity: 1; pointer-events: visible;" class="DimensionMark"><polygon points="-5,-5,0,0,-5,5"/></g><g id="mark3" fill="#000000" stroke="none" transform="matrix(1,0,0,1,34.3282,46.6278)" style="fill-opacity: 1; pointer-events: visible;" class="DimensionMark"><polygon points="-5,-5,0,0,5,-5"/></g><g id="mark4" fill="#000000" stroke="none" transform="matrix(1,0,0,1,0,23.3139)" style="fill-opacity: 1; pointer-events: visible;" class="DimensionMark"><polygon points="5,5,0,0,5,-5"/></g></g><g transform="matrix(1,0,0,1,23.3139,23.3139)" class="SpaceDimensionsLabel"><g id="NameLabel" style="display: block;" class="TextLabel NameLabel"><text x="0" y="0em" fill="#000000" stroke="none" style="font-family: Verdana; font-size: 33px; fill-opacity: 1; cursor: default;">UNDEFINED</text></g><g id="DimensionMeasureLabel" transform="matrix(1,0,0,1,12.1485,39.8125)" style="display: none;" class="TextLabel DimensionMeasureLabel"><text x="0" y="0em" fill="#000000" stroke="none" style="font-family: Verdana; font-size: 33px; fill-opacity: 1; cursor: default;">2'3" x 1'6"</text><text x="0" y="0"/></g></g></g></g><g id="4d3f2828-66f2-43df-8919-4030c4a6bb7b" fill="#ffffff" stroke="#ffffff" style="fill-opacity: 1; stroke-opacity: 1; stroke-width: 0.2;" class="Space Undefined"><polygon points="863.60,349.31 810.91,349.31 810.91,300.46 863.60,300.46 "/><g transform="matrix(1,0,0,1,810.9068,300.4551)" class="Dimension"><g transform="matrix(1,0,0,1,0,0)" style="display: none;" class="Visual"><g id="mark1" fill="#000000" stroke="none" transform="matrix(1,0,0,1,26.345,0)" style="fill-opacity: 1; pointer-events: visible;" class="DimensionMark"><polygon points="-5,5,0,0,5,5"/></g><g id="mark2" fill="#000000" stroke="none" transform="matrix(1,0,0,1,52.6901,24.4276)" style="fill-opacity: 1; pointer-events: visible;" class="DimensionMark"><polygon points="-5,-5,0,0,-5,5"/></g><g id="mark3" fill="#000000" stroke="none" transform="matrix(1,0,0,1,26.345,48.8553)" style="fill-opacity: 1; pointer-events: visible;" class="DimensionMark"><polygon points="-5,-5,0,0,5,-5"/></g><g id="mark4" fill="#000000" stroke="none" transform="matrix(1,0,0,1,0,24.4276)" style="fill-opacity: 1; pointer-events: visible;" class="DimensionMark"><polygon points="5,5,0,0,5,-5"/></g></g><g transform="matrix(1,0,0,1,24.4277,24.4277)" class="SpaceDimensionsLabel"><g id="NameLabel" style="display: block;" class="TextLabel NameLabel"><text x="0" y="0em" fill="#000000" stroke="none" style="font-family: Verdana; font-size: 33px; fill-opacity: 1; cursor: default;">UNDEFINED</text></g><g id="DimensionMeasureLabel" transform="matrix(1,0,0,1,12.1485,39.8125)" style="display: none;" class="TextLabel DimensionMeasureLabel"><text x="0" y="0em" fill="#000000" stroke="none" style="font-family: Verdana; font-size: 33px; fill-opacity: 1; cursor: default;">1'9" x 1'7"</text><text x="0" y="0"/></g></g></g></g><g id="f58903d0-f224-4e01-8007-d6d9c5bf1d72" fill="#ffffff" stroke="#ffffff" style="fill-opacity: 1; stroke-opacity: 1; stroke-width: 0.2;" class="Space Undefined"><polygon points="1022.10,453.60 970.60,453.60 970.60,404.79 1022.10,404.79 "/><g transform="matrix(1,0,0,1,970.6014,404.7925)" class="Dimension"><g transform="matrix(1,0,0,1,0,0)" style="display: none;" class="Visual"><g id="mark1" fill="#000000" stroke="none" transform="matrix(1,0,0,1,25.7515,0)" style="fill-opacity: 1; pointer-events: visible;" class="DimensionMark"><polygon points="-5,5,0,0,5,5"/></g><g id="mark2" fill="#000000" stroke="none" transform="matrix(1,0,0,1,51.5029,24.4062)" style="fill-opacity: 1; pointer-events: visible;" class="DimensionMark"><polygon points="-5,-5,0,0,-5,5"/></g><g id="mark3" fill="#000000" stroke="none" transform="matrix(1,0,0,1,25.7515,48.8124)" style="fill-opacity: 1; pointer-events: visible;" class="DimensionMark"><polygon points="-5,-5,0,0,5,-5"/></g><g id="mark4" fill="#000000" stroke="none" transform="matrix(1,0,0,1,0,24.4062)" style="fill-opacity: 1; pointer-events: visible;" class="DimensionMark"><polygon points="5,5,0,0,5,-5"/></g></g><g transform="matrix(1,0,0,1,24.4062,24.4062)" class="SpaceDimensionsLabel"><g id="NameLabel" style="display: block;" class="TextLabel NameLabel"><text x="0" y="0em" fill="#000000" stroke="none" style="font-family: Verdana; font-size: 33px; fill-opacity: 1; cursor: default;">UNDEFINED</text></g><g id="DimensionMeasureLabel" transform="matrix(1,0,0,1,12.1485,39.8125)" style="display: none;" class="TextLabel DimensionMeasureLabel"><text x="0" y="0em" fill="#000000" stroke="none" style="font-family: Verdana; font-size: 33px; fill-opacity: 1; cursor: default;">1'8" x 1'7"</text><text x="0" y="0"/></g></g></g></g><g id="Wall" fill="#000000" stroke="#000000" style="fill-opacity: 1; stroke-opacity: 1; stroke-width: 0.2;" class="Wall External"><polygon points="370.83,93.41 1270.16,93.41 1314.16,49.41 328.83,49.41 "/><g id="Window" fill="#f0f0ff" stroke="#000000" style="fill-opacity: 1; stroke-width: 1; stroke-opacity: 1;" class="Window Regular"><polygon points="372.96,93.41 454.74,93.41 454.74,49.41 372.96,49.41 "/><g id="Glass" class="Glass"><polygon points="372.96,93.41 454.74,93.41 454.74,49.41 372.96,49.41 "/></g><g id="Panel" class="Panel"><line x1="380.4582550492414" x2="447.2440152346279" y1="71.41119128735602" y2="71.411191287356"/><line x1="380.4582550492414" x2="380.4582550492414" y1="93.41119128735602" y2="49.41119128735602"/><line x1="447.2440152346279" x2="447.2440152346279" y1="93.411191287356" y2="49.411191287356004"/></g></g></g><g id="Wall" fill="#000000" stroke="#000000" style="fill-opacity: 1; stroke-opacity: 1; stroke-width: 0.2;" class="Wall External"><polygon points="1291.38,630.47 801.91,630.47 815.91,660.47 1314.16,660.47 "/><g id="Door" fill="#ffffff" stroke="#000000" style="fill-opacity: 1; stroke-width: 1; stroke-opacity: 1;" class="Door None Beside"><polygon points="922.52,630.47 840.04,630.47 840.04,660.47 922.52,660.47 "/><g id="Threshold" stroke="#ffffff" style="" class="Threshold"><polygon points="922.52,630.47 840.04,630.47 840.04,660.47 922.52,660.47 "/></g></g></g><g id="Wall" fill="#000000" stroke="#000000" style="fill-opacity: 1; stroke-opacity: 1; stroke-width: 0.2;" class="Wall External"><polygon points="815.91,660.47 815.91,671.71 801.91,653.71 801.91,630.47 "/></g><g id="Wall" fill="#000000" stroke="#000000" style="fill-opacity: 1; stroke-opacity: 1; stroke-width: 0.2;" class="Wall External"><polygon points="815.91,671.71 677.60,671.71 699.60,653.71 801.91,653.71 "/></g><g id="Wall" fill="#000000" stroke="#000000" style="fill-opacity: 1; stroke-opacity: 1; stroke-width: 0.2;" class="Wall External"><polygon points="699.60,653.71 699.60,505.52 677.60,523.52 677.60,671.71 "/></g><g id="Wall" fill="#000000" stroke="#000000" style="fill-opacity: 1; stroke-opacity: 1; stroke-width: 0.2;" class="Wall External"><polygon points="699.60,505.52 370.83,505.52 328.83,523.52 677.60,523.52 "/></g><g id="Wall" fill="#000000" stroke="#000000" style="fill-opacity: 1; stroke-opacity: 1; stroke-width: 0.2;" class="Wall External"><polygon points="370.83,505.52 370.83,93.41 328.83,49.41 328.83,523.52 "/><g id="Door" fill="#ffffff" stroke="#000000" style="fill-opacity: 1; stroke-width: 1; stroke-opacity: 1;" class="Door None Beside"><polygon points="370.83,326.18 370.83,243.16 328.83,243.16 328.83,326.18 "/><g id="Threshold" stroke="#ffffff" style="" class="Threshold"><polygon points="370.83,326.18 370.83,243.16 328.83,243.16 328.83,326.18 "/></g></g><g id="Window" fill="#f0f0ff" stroke="#000000" style="fill-opacity: 1; stroke-width: 1; stroke-opacity: 1;" class="Window Regular"><polygon points="370.83,236.40 370.83,96.19 328.83,96.19 328.83,236.40 "/><g id="Glass" class="Glass"><polygon points="370.83,236.40 370.83,96.19 328.83,96.19 328.83,236.40 "/></g><g id="Panel" class="Panel"><line x1="349.8262461554183" x2="349.8262461554183" y1="228.89737232283062" y2="103.69321317791213"/><line x1="370.8262461554183" x2="328.8262461554183" y1="228.89737232283062" y2="228.89737232283062"/><line x1="370.8262461554183" x2="328.8262461554183" y1="103.69321317791213" y2="103.69321317791213"/></g></g></g><g id="Railing" fill="#ffffff" stroke="#000000" style="fill-opacity: 1; stroke-opacity: 1; stroke-width: 0.2;" class="Railing"><polygon points="328.83,468.04 227.02,468.04 239.02,455.04 328.83,455.04 " style="stroke-dasharray: 101.804, 17.6918, 102.804;"/></g><g id="Railing" fill="#ffffff" stroke="#000000" style="fill-opacity: 1; stroke-opacity: 1; stroke-width: 0.2;" class="Railing"><polygon points="227.02,468.04 227.02,231.50 239.02,243.50 239.02,455.04 " style="stroke-dasharray: 236.537, 16.9706, 211.537, 17.6918;"/></g><g id="Railing" fill="#ffffff" stroke="#000000" style="fill-opacity: 1; stroke-opacity: 1; stroke-width: 0.2;" class="Railing"><polygon points="227.02,231.50 328.83,231.50 328.83,243.50 239.02,243.50 " style="stroke-dasharray: 203.607, 16.9706;"/></g><g id="Wall" fill="#000000" stroke="#000000" style="fill-opacity: 1; stroke-opacity: 1; stroke-width: 0.2;" class="Wall"><polygon points="801.91,630.47 801.91,93.41 810.91,93.41 810.91,630.47 "/><g id="Door" fill="#ffffff" stroke="#000000" style="fill-opacity: 1; stroke-width: 1; stroke-opacity: 1;" class="Door None Beside"><polygon points="801.91,560.24 801.91,515.73 810.91,515.73 810.91,560.24 "/><g id="Threshold" stroke="#ffffff" style="" class="Threshold"><polygon points="801.91,560.24 801.91,515.73 810.91,515.73 810.91,560.24 "/></g></g><g id="Door" fill="#ffffff" stroke="#000000" style="fill-opacity: 1; stroke-width: 1; stroke-opacity: 1;" class="Door None Beside"><polygon points="801.91,502.20 801.91,415.10 810.91,415.10 810.91,502.20 "/><g id="Threshold" stroke="#ffffff" style="" class="Threshold"><polygon points="801.91,502.20 801.91,415.10 810.91,415.10 810.91,502.20 "/></g></g><g id="Door" fill="#ffffff" stroke="#000000" style="fill-opacity: 1; stroke-width: 1; stroke-opacity: 1;" class="Door None Beside"><polygon points="801.91,280.19 801.91,173.14 810.91,173.14 810.91,280.19 "/><g id="Threshold" stroke="#ffffff" style="" class="Threshold"><polygon points="801.91,280.19 801.91,173.14 810.91,173.14 810.91,280.19 "/></g></g></g><g id="Wall" fill="#000000" stroke="#000000" style="fill-opacity: 1; stroke-opacity: 1; stroke-width: 0.2;" class="Wall"><polygon points="801.91,395.79 1314.16,395.79 1314.16,404.79 801.91,404.79 "/><g id="Door" fill="#ffffff" stroke="#000000" style="fill-opacity: 1; stroke-width: 1; stroke-opacity: 1;" class="Door None Beside"><polygon points="877.94,395.79 954.57,395.79 954.57,404.79 877.94,404.79 "/><g id="Threshold" stroke="#ffffff" style="" class="Threshold"><polygon points="877.94,395.79 954.57,395.79 954.57,404.79 877.94,404.79 "/></g></g></g><g id="Wall" fill="#000000" stroke="#000000" style="fill-opacity: 1; stroke-opacity: 1; stroke-width: 0.2;" class="Wall"><polygon points="961.60,630.47 961.60,404.79 970.60,404.79 970.60,558.63 "/><g id="Door" fill="#ffffff" stroke="#000000" style="fill-opacity: 1; stroke-width: 1; stroke-opacity: 1;" class="Door None Beside"><polygon points="961.60,538.71 961.60,471.65 970.60,471.65 970.60,538.71 "/><g id="Threshold" stroke="#ffffff" style="" class="Threshold"><polygon points="961.60,538.71 961.60,471.65 970.60,471.65 970.60,538.71 "/></g></g></g><g id="Wall" fill="#000000" stroke="#000000" style="fill-opacity: 1; stroke-opacity: 1; stroke-width: 0.2;" class="Wall"><polygon points="970.60,464.60 1031.10,464.60 1022.10,453.60 970.60,453.60 "/><g id="Door" fill="#ffffff" stroke="#000000" style="fill-opacity: 1; stroke-width: 1; stroke-opacity: 1;" class="Door None Beside"><polygon points="976.57,464.60 1018.37,464.60 1018.37,453.60 976.57,453.60 "/><g id="Threshold" stroke="#ffffff" style="" class="Threshold"><polygon points="976.57,464.60 1018.37,464.60 1018.37,453.60 976.57,453.60 "/></g></g></g><g id="Wall" fill="#000000" stroke="#000000" style="fill-opacity: 1; stroke-opacity: 1; stroke-width: 0.2;" class="Wall"><polygon points="1031.10,464.60 1031.10,404.79 1022.10,404.79 1022.10,453.60 "/></g><g id="Wall" fill="#000000" stroke="#000000" style="fill-opacity: 1; stroke-opacity: 1; stroke-width: 0.2;" class="Wall"><polygon points="961.60,630.47 1038.38,630.47 1038.38,558.63 970.60,558.63 "/></g><g id="Wall" fill="#000000" stroke="#000000" style="fill-opacity: 1; stroke-opacity: 1; stroke-width: 0.2;" class="Wall"><polygon points="801.91,404.79 871.60,404.79 863.60,349.31 801.91,349.31 "/></g><g id="Wall" fill="#000000" stroke="#000000" style="fill-opacity: 1; stroke-opacity: 1; stroke-width: 0.2;" class="Wall"><polygon points="871.60,404.79 871.60,289.46 863.60,300.46 863.60,349.31 "/></g><g id="Wall" fill="#000000" stroke="#000000" style="fill-opacity: 1; stroke-opacity: 1; stroke-width: 0.2;" class="Wall"><polygon points="871.60,289.46 801.91,289.46 801.91,300.46 863.60,300.46 "/><g id="Door" fill="#ffffff" stroke="#000000" style="fill-opacity: 1; stroke-width: 1; stroke-opacity: 1;" class="Door None Beside"><polygon points="855.47,289.46 812.71,289.46 812.71,300.46 855.47,300.46 "/><g id="Threshold" stroke="#ffffff" style="" class="Threshold"><polygon points="855.47,289.46 812.71,289.46 812.71,300.46 855.47,300.46 "/></g></g></g><g id="Wall" fill="#000000" stroke="#000000" style="fill-opacity: 1; stroke-opacity: 1; stroke-width: 0.2;" class="Wall"><polygon points="801.91,159.97 865.92,159.97 856.31,148.97 801.91,148.97 "/><g id="Door" fill="#ffffff" stroke="#000000" style="fill-opacity: 1; stroke-width: 1; stroke-opacity: 1;" class="Door None Beside"><polygon points="814.74,159.97 853.39,159.97 853.39,148.97 814.74,148.97 "/><g id="Threshold" stroke="#ffffff" style="" class="Threshold"><polygon points="814.74,159.97 853.39,159.97 853.39,148.97 814.74,148.97 "/></g></g></g><g id="Wall" fill="#000000" stroke="#000000" style="fill-opacity: 1; stroke-opacity: 1; stroke-width: 0.2;" class="Wall"><polygon points="865.92,159.97 865.92,93.41 856.31,93.41 856.31,148.97 "/></g><g id="Wall" fill="#000000" stroke="#000000" style="fill-opacity: 1; stroke-opacity: 1; stroke-width: 0.2;" class="Wall"><polygon points="699.60,505.52 801.91,505.52 801.91,513.52 699.60,513.52 "/></g><g id="Wall" fill="#000000" stroke="#000000" style="fill-opacity: 1; stroke-opacity: 1; stroke-width: 0.2;" class="Wall"><polygon points="699.60,513.52 747.28,513.52 747.28,564.85 699.60,564.85 "/></g><g id="Wall" fill="#000000" stroke="#000000" style="fill-opacity: 1; stroke-opacity: 1; stroke-width: 0.2;" class="Wall"><polygon points="1270.16,572.84 1215.72,572.84 1222.72,583.84 1270.16,583.84 "/><g id="Door" fill="#ffffff" stroke="#000000" style="fill-opacity: 1; stroke-width: 1; stroke-opacity: 1;" class="Door None Beside"><polygon points="1267.84,572.84 1226.74,572.84 1226.74,583.84 1267.84,583.84 "/><g id="Threshold" stroke="#ffffff" style="" class="Threshold"><polygon points="1267.84,572.84 1226.74,572.84 1226.74,583.84 1267.84,583.84 "/></g></g></g><g id="Wall" fill="#000000" stroke="#000000" style="fill-opacity: 1; stroke-opacity: 1; stroke-width: 0.2;" class="Wall"><polygon points="1222.72,583.84 1222.72,630.47 1215.72,630.47 1215.72,572.84 "/></g><g id="Wall" fill="#000000" stroke="#000000" style="fill-opacity: 1; stroke-opacity: 1; stroke-width: 0.2;" class="Wall External"><polygon points="1270.16,93.41 1270.16,594.29 1314.16,594.29 1314.16,49.41 "/><g id="Window" fill="#f0f0ff" stroke="#000000" style="fill-opacity: 1; stroke-width: 1; stroke-opacity: 1;" class="Window Regular"><polygon points="1270.16,422.25 1270.16,541.88 1314.16,541.88 1314.16,422.25 "/><g id="Glass" class="Glass"><polygon points="1270.16,422.25 1270.16,541.88 1314.16,541.88 1314.16,422.25 "/></g><g id="Panel" class="Panel"><line x1="1292.1567214167292" x2="1292.1567214167292" y1="429.75119573849065" y2="534.3844234366792"/><line x1="1270.1567214167292" x2="1314.1567214167292" y1="429.75119573849065" y2="429.75119573849065"/><line x1="1270.1567214167292" x2="1314.1567214167292" y1="534.3844234366792" y2="534.3844234366792"/></g></g><g id="Window" fill="#f0f0ff" stroke="#000000" style="fill-opacity: 1; stroke-width: 1; stroke-opacity: 1;" class="Window Regular"><polygon points="1270.16,161.61 1270.16,312.12 1314.16,312.12 1314.16,161.61 "/><g id="Glass" class="Glass"><polygon points="1270.16,161.61 1270.16,312.12 1314.16,312.12 1314.16,161.61 "/></g><g id="Panel" class="Panel"><line x1="1292.1567214167292" x2="1292.1567214167292" y1="169.1146493203658" y2="304.6172633290207"/><line x1="1270.1567214167292" x2="1314.1567214167292" y1="169.1146493203658" y2="169.1146493203658"/><line x1="1270.1567214167292" x2="1314.1567214167292" y1="304.6172633290207" y2="304.6172633290207"/></g></g></g><g id="Wall" fill="#000000" stroke="#000000" style="fill-opacity: 1; stroke-opacity: 1; stroke-width: 0.2;" class="Wall External"><polygon points="1291.38,594.29 1291.38,630.47 1314.16,660.47 1314.16,594.29 "/></g><g id="Wall" fill="#000000" stroke="#000000" style="fill-opacity: 1; stroke-opacity: 1; stroke-width: 0.2;" class="Wall"><polygon points="810.91,93.41 810.91,107.61 823.09,107.61 823.09,93.41 "/></g><g class="FixedFurniture Toilet" fill="#ffffff" stroke="#000000" transform="matrix(0,-1,0.8903,0,699.5958,619.0087)" style="fill-opacity: 1; stroke-opacity: 1; stroke-width: 1;">
	   <g class="BoundaryPolygon" fill="none" stroke="none"> 
            <polygon points="0,0 41,0 41,71 0,71"/>
		</g>
        <g class="InnerPolygon">
            <rect x="0.502" y="0.5" width="39.989" height="17.98"/>
            <path d="M40.491,44.237S41.619,70.5,20.907,70.5C-.523,70.5.6,44.237.6,44.237L.5,18.48H40.491Z"/>
            <rect x="17.318" y="7.975" width="6.357" height="3.03"/>
        </g>
        <desc>Width:41 Height:85 Depth:71 Elevation:0</desc>
    </g><g id="FixedFurnitureSet" transform="matrix(-1,0,0,-1,801.9068,653.6055)" class="FixedFurnitureSet" fill="#ffffff" stroke="#fc0fc0" style="fill-opacity: 0.4; stroke-opacity: 0.9; stroke-width: 1.5;"><g class="FixedFurniture BaseCabinet" fill="#ffffff" stroke="#000000" transform="matrix(1,0,0,1,0,0)" style="fill-opacity: 1; stroke-opacity: 1; stroke-width: 1;">
        <g class="BoundaryPolygon">
            <polygon points="0.00,0.00 42.98,0.00 42.98,28.90 0.00,28.90 "/>
        </g>
        <g class="Direction" fill-opacity="0.9" style="display: none;">
            <polygon points="22.93,26.59 22.93,15.97 19.92,15.97 19.92,26.59 16.12,26.59 21.42,31.39 26.72,26.59 22.93,26.59 " fill="#444444"/>
        </g> 
        <g class="Name" fill-opacity="0.9" style="display: none;">
            <text transform="translate(3 12)" font-size="12" font-family="Verdana, Sans-Serif">CB</text>
        </g>
        <desc>Width:60 Height:5 Depth:60 Elevation:105</desc>
    </g><g class="FixedFurniture Sink" fill="#ffffff" stroke="#000000" transform="matrix(1,0,0,1,0,0)" style="fill-opacity: 1; stroke-opacity: 1; stroke-width: 1;">
        <g class="BoundaryPolygon" fill="none" stroke="none">
        <polygon points="0.00,0.00 42.98,0.00 42.98,28.90 0.00,28.90 "/>
        </g>
        <g class="InnerPolygon">
            <polygon points="3.58,9.70 39.40,9.70 39.40,26.35 3.58,26.35 "/>
        </g>
        <g class="OuterDrain" stroke-width="0.8">
            <circle cx="21.490330625323825" cy="15.511085654135693" r="3.5"/>
        </g>
        <g class="InnerDrain" stroke-width="0.8">
            <circle cx="21.490330625323825" cy="15.511085654135693" r="2"/>
        </g>
        <g class="Faucet">
            <polygon points="19.34,2.41 25.34,2.41 25.34,16.41 19.34,16.41 "/>
        </g>
        <g class="Direction" fill-opacity="0.9" style="display: none;">
            <polygon points="22.93,26.59 22.93,15.97 19.92,15.97 19.92,26.59 16.12,26.59 21.42,31.39 26.72,26.59 22.93,26.59 " fill="#444444"/>
        </g> 
        <g class="Name" fill-opacity="0.9" style="display: none;">
            <text transform="translate(3 12)" font-size="12" font-family="Verdana, Sans-Serif">SINK</text>
        </g>
        <desc>Width:60 Height:90 Depth:60 Elevation:0</desc>
    </g></g><g id="Wall" fill="#000000" stroke="#000000" style="fill-opacity: 1; stroke-opacity: 1; stroke-width: 0.2;" class="Wall"><polygon points="1038.38,558.63 1114.87,558.63 1107.87,568.63 1038.38,568.63 "/><g id="Door" fill="#ffffff" stroke="#000000" style="fill-opacity: 1; stroke-width: 1; stroke-opacity: 1;" class="Door None Beside"><polygon points="1040.38,558.63 1104.38,558.63 1104.38,568.63 1040.38,568.63 "/><g id="Threshold" stroke="#ffffff" style="" class="Threshold"><polygon points="1040.38,558.63 1104.38,558.63 1104.38,568.63 1040.38,568.63 "/></g></g></g><g id="Wall" fill="#000000" stroke="#000000" style="fill-opacity: 1; stroke-opacity: 1; stroke-width: 0.2;" class="Wall"><polygon points="1114.87,558.63 1114.87,630.47 1107.87,630.47 1107.87,568.63 "/></g><g class="FixedFurniture BaseCabinet" fill="#ffffff" stroke="#000000" transform="matrix(-1,0,0,-1,1215.7196,630.4659)" style="fill-opacity: 1; stroke-opacity: 1; stroke-width: 1;">
        <g class="BoundaryPolygon">
            <polygon points="0.00,0.00 100.24,0.00 100.24,57.10 0.00,57.10 "/>
        </g>
        <g class="Direction" fill-opacity="0.9" style="display: none;">
            <polygon points="53.47,52.53 53.47,41.91 50.47,41.91 50.47,52.53 46.66,52.53 51.97,57.33 57.27,52.53 53.47,52.53 " fill="#444444"/>
        </g> 
        <g class="Name" fill-opacity="0.9" style="display: none;">
            <text transform="translate(3 12)" font-size="12" font-family="Verdana, Sans-Serif">CB</text>
        </g>
        <desc>Width:60 Height:90 Depth:60 Elevation:0</desc>
    </g><g transform="matrix(1,0,0,1,1222.7194,630.4659)" class="FixedFurniture Closet" fill="#ffffff" stroke="#000000" style="fill-opacity: 1; stroke-opacity: 1; stroke-width: 1;"><desc>Width:120 Height:200 Depth:60 Elevation:0</desc><g class="BoundaryPolygon"><polygon points="0.00,0.00 68.66,0.00 68.66,-36.18 47.44,-36.18 47.44,-46.63 0.00,-46.63 0.00,0.00 "/></g></g><g class="FixedFurniture ElectricalAppliance Refrigerator" fill="#ffffff" stroke="#000000" transform="matrix(0.8548,0,0,0.7987,970.8163,404.8424)" style="fill-opacity: 1; stroke-opacity: 1; stroke-width: 1;">
        <g class="BoundaryPolygon">
            <polygon points="0,0 60,0 60,60 0,60"/>
        </g>
        <g class="electricitySign" fill="none" style="display: block;">
            <path d="M0,0,30,37.1v-18L60,56.3"/>
        </g>
        <g class="Doors">
            <rect y="56" width="60" height="4"/>
        </g>
        <g class="Direction" fill-opacity="0.9" style="display: none;">
            <polygon points="32.009 55.197 32.009 44.581 29 44.581 29 55.197 25.197 55.197 30.5 60 35.803 55.197 32.009 55.197" fill="#444444"/>
        </g> 
        <g class="Name" fill-opacity="0.9" style="display: none;">
            <text transform="translate(3 12)" font-size="12" font-family="Verdana, Sans-Serif">REF</text>
        </g>
        <desc>Width:60 Height:170 Depth:60 Elevation:0</desc>
    </g><g class="FixedFurniture Closet" fill="#ffffff" stroke="#000000" transform="matrix(-1,0,0,-1,862.8068,349.065)" style="fill-opacity: 1; stroke-opacity: 1; stroke-width: 1;">
        <g class="BoundaryPolygon">
            <polygon points="0.00,0.00 51.90,0.00 51.90,47.51 0.00,47.51 "/>
        </g>
        <g class="Direction" fill-opacity="0.9" style="display: none;">
            <polygon points="27.25,43.31 27.25,32.69 24.24,32.69 24.24,43.31 20.44,43.31 25.74,48.61 31.05,43.31 27.25,43.31 " fill="#444444"/>
        </g> 
        <g class="Name" fill-opacity="0.9" style="display: none;">
            <text transform="translate(3 12)" font-size="12" font-family="Verdana, Sans-Serif">CL</text>
        </g>
        <desc>Width:60 Height:200 Depth:60 Elevation:0</desc>
     </g><g transform="matrix(1,0,0,1,810.9068,107.61)" class="FixedFurniture Closet" fill="#ffffff" stroke="#000000" style="fill-opacity: 1; stroke-opacity: 1; stroke-width: 1;"><desc>Width:120 Height:200 Depth:60 Elevation:0</desc><g class="BoundaryPolygon"><polygon points="0.00,0.00 12.18,0.00 12.18,-14.20 45.40,-14.20 45.40,41.36 0.00,41.36 0.00,0.00 "/></g></g><g class="FixedFurniture Sink" fill="#ffffff" stroke="#000000" transform="matrix(-1,0,0,-1,1161.4794,630.7576)" style="fill-opacity: 1; stroke-opacity: 1; stroke-width: 1;">
        <g class="BoundaryPolygon" fill="none" stroke="none">
            <polygon points="0.00,0.00 42.50,0.00 42.50,35.79 0.00,35.79 "/>
        </g>
        <g class="InnerPolygon">
            <polygon points="3.54,9.70 38.96,9.70 38.96,32.63 3.54,32.63 "/>
        </g>
        <g class="OuterDrain" stroke-width="0.8">
            <circle cx="21.249869544707636" cy="19.208000747325347" r="3.5"/>
        </g>
        <g class="InnerDrain" stroke-width="0.8">
            <circle cx="21.249869544707636" cy="19.208000747325347" r="2"/>
        </g>
        <g class="Faucet">
            <polygon points="19.12,2.98 25.12,2.98 25.12,16.98 19.12,16.98 "/>
        </g>
        <g class="Direction" fill-opacity="0.9" style="display: none;">
            <polygon points="22.67,32.93 22.67,22.31 19.66,22.31 19.66,32.93 15.86,32.93 21.16,37.73 26.47,32.93 22.67,32.93 " fill="#444444"/>
        </g> 
        <g class="Name" fill-opacity="0.9" style="display: none;">
            <text transform="translate(3 12)" font-size="12" font-family="Verdana, Sans-Serif">SINK</text>
        </g>
        <desc>Width:60 Height:90 Depth:60 Elevation:0</desc>
    </g><g class="FixedFurniture WoodStove" fill="#ffffff" stroke="#000000" transform="matrix(-1,0,0,-1,1107.2842,630.466)" style="fill-opacity: 1; stroke-opacity: 1; stroke-width: 1;">
	   <g class="BoundaryPolygon"> 
            <polygon points="0.00,0.00 68.90,0.00 68.90,60.42 0.00,60.42 "/>
        </g>	
	    <g class="OuterCircle">
		    <circle cx="19.086545136116726" cy="30.48888268712091" r="19.6"/>
		    <circle cx="51.609466812099036" cy="30.48888268712091" r="14.7"/>
		</g>
        <desc>Width:100 Height:90 Depth:65 Elevation:0</desc>
	</g><g fill="#0000ff" stroke="#0000ff" style="display: block;" class="SelectionControls"><g style="display: block;" class="rotateControl"><circle cx="1089.2063008543978" cy="463.3891678696811" r="5" style="stroke : none; fill-opacity: 0.5; cursor:crosshair"/></g><g style="display: none;" class="ResizeNControl"><circle cx="0" cy="0" r="5" style="stroke : none; fill-opacity: 0.5"/></g><g style="display: none;" class="ResizeNEControl"><circle cx="0" cy="0" r="5" style="stroke : none; fill-opacity: 0.5"/></g><g style="display: none;" class="ResizeEControl"><circle cx="0" cy="0" r="5" style="stroke : none; fill-opacity: 0.5"/></g><g style="display: none;" class="ResizeSEControl"><circle cx="0" cy="0" r="5" style="stroke : none; fill-opacity: 0.5"/></g><g style="display: none;" class="ResizeSControl"><circle cx="0" cy="0" r="5" style="stroke : none; fill-opacity: 0.5"/></g><g style="display: none;" class="ResizeSWControl"><circle cx="0" cy="0" r="5" style="stroke : none; fill-opacity: 0.5"/></g><g style="display: none;" class="ResizeWControl"><circle cx="0" cy="0" r="5" style="stroke : none; fill-opacity: 0.5"/></g><g style="display: none;" class="ResizeNWControl"><circle cx="0" cy="0" r="5" style="stroke : none; fill-opacity: 0.5"/></g><g style="display: block;" class="removeControl"><polygon style="stroke : none; fill-opacity: 0.1" points="989.74,493.39 1188.68,493.39 1188.68,533.48 989.74,533.48 "/></g><g style="display: none;" class="copyPasteControl"><polygon style="stroke : none; fill-opacity: 0.1"/></g><g style="display: block;" class="translateControl"><polygon style="stroke : none; fill-opacity: 0.1; cursor:move" points="989.74,493.39 1188.68,493.39 1188.68,533.48 989.74,533.48 "/></g></g><g fill="#0000ff" stroke="#0000ff" style="display: block;" class="SelectionControls"><polygon fill="none" stroke="#0000ff" style="" points="970.60,404.79 1270.16,404.79 1270.16,630.47 970.60,630.47 "/><g style="display: block;" class="rotateControl"><circle cx="1120.3790455565463" cy="374.7924678696811" r="5" style="stroke : none; fill-opacity: 0.5; cursor:crosshair"/></g><g style="display: none;" class="ResizeNControl"><circle cx="0" cy="0" r="5" style="stroke : none; fill-opacity: 0.5"/></g><g style="display: none;" class="ResizeNEControl"><circle cx="0" cy="0" r="5" style="stroke : none; fill-opacity: 0.5"/></g><g style="display: none;" class="ResizeEControl"><circle cx="0" cy="0" r="5" style="stroke : none; fill-opacity: 0.5"/></g><g style="display: none;" class="ResizeSEControl"><circle cx="0" cy="0" r="5" style="stroke : none; fill-opacity: 0.5"/></g><g style="display: none;" class="ResizeSControl"><circle cx="0" cy="0" r="5" style="stroke : none; fill-opacity: 0.5"/></g><g style="display: none;" class="ResizeSWControl"><circle cx="0" cy="0" r="5" style="stroke : none; fill-opacity: 0.5"/></g><g style="display: none;" class="ResizeWControl"><circle cx="0" cy="0" r="5" style="stroke : none; fill-opacity: 0.5"/></g><g style="display: none;" class="ResizeNWControl"><circle cx="0" cy="0" r="5" style="stroke : none; fill-opacity: 0.5"/></g><g style="display: none;" class="removeControl"><polygon style="stroke : none; fill-opacity: 0.1"/></g><g style="display: none;" class="copyPasteControl"><polygon style="stroke : none; fill-opacity: 0.1"/></g><g style="display: none;" class="translateControl"><polygon style="stroke : none; fill-opacity: 0.1; cursor:move"/></g></g></g></g></g></svg>
